<?xml version="1.0" encoding="UTF-8" standalone="no"?>
<!-- Created with Inkscape (http://www.inkscape.org/) -->

<svg
   width="64"
   height="64"
   id="svg2"
   version="1.1"
   inkscape:version="1.1 (c68e22c387, 2021-05-23)"
   sodipodi:docname="com.github.jeysonflores.switcher.svg"
   inkscape:export-filename="/home/jeyson/Música/livepatch.png"
   inkscape:export-xdpi="90"
   inkscape:export-ydpi="90"
   xmlns:inkscape="http://www.inkscape.org/namespaces/inkscape"
   xmlns:sodipodi="http://sodipodi.sourceforge.net/DTD/sodipodi-0.dtd"
   xmlns:xlink="http://www.w3.org/1999/xlink"
   xmlns="http://www.w3.org/2000/svg"
   xmlns:svg="http://www.w3.org/2000/svg"
   xmlns:rdf="http://www.w3.org/1999/02/22-rdf-syntax-ns#"
   xmlns:cc="http://creativecommons.org/ns#"
   xmlns:dc="http://purl.org/dc/elements/1.1/">
  <defs
     id="defs4">
    <linearGradient
       id="linearGradient1034">
      <stop
         style="stop-color:#1a1a1a;stop-opacity:1"
         offset="0"
         id="stop1032" />
      <stop
         style="stop-color:#4d4d4d;stop-opacity:1"
         offset="1"
         id="stop1030" />
    </linearGradient>
    <linearGradient
       inkscape:collect="always"
       id="linearGradient911">
      <stop
         style="stop-color:#ffffff;stop-opacity:1"
         offset="0"
         id="stop907" />
      <stop
         style="stop-color:#d7d7d7;stop-opacity:1"
         offset="1"
         id="stop909" />
    </linearGradient>
    <clipPath
       id="clipPath-536897967">
      <g
         transform="translate(0,-1004.3622)"
         id="g17">
        <path
           style="fill:#1890d0"
           inkscape:connector-curvature="0"
           d="m -24,13 c 0,1.105 -0.672,2 -1.5,2 -0.828,0 -1.5,-0.895 -1.5,-2 0,-1.105 0.672,-2 1.5,-2 0.828,0 1.5,0.895 1.5,2 z"
           transform="matrix(15.333333,0,0,11.5,414.99999,878.8622)"
           id="path19" />
      </g>
    </clipPath>
    <linearGradient
       inkscape:collect="always"
       xlink:href="#linearGradient1034"
       id="linearGradient1236"
       x1="520"
       y1="32.362179"
       x2="540"
       y2="1092.3622"
       gradientUnits="userSpaceOnUse"
       gradientTransform="matrix(0.90409804,0,0,0.90409804,-49.406713,23.489732)" />
    <linearGradient
       inkscape:collect="always"
       xlink:href="#linearGradient1034"
       id="linearGradient946"
       gradientUnits="userSpaceOnUse"
       gradientTransform="matrix(4.6109,0,0,4.6109,56.85007,78.985092)"
       x1="102.29776"
       y1="-0.42686829"
       x2="102.29776"
       y2="199.16539" />
    <linearGradient
       inkscape:collect="always"
       xlink:href="#linearGradient911"
       id="linearGradient843"
       x1="520"
       y1="4"
       x2="520.03137"
       y2="1026.0078"
       gradientUnits="userSpaceOnUse" />
    <linearGradient
       inkscape:collect="always"
       xlink:href="#linearGradient911"
       id="linearGradient1250"
       gradientUnits="userSpaceOnUse"
       gradientTransform="matrix(0.90409804,0,0,0.90409804,129.92594,85.911995)"
       x1="520"
       y1="32.362179"
       x2="540"
       y2="1092.3622" />
    <filter
       inkscape:collect="always"
       style="color-interpolation-filters:sRGB"
       id="filter1252-6"
       x="-0.096528885"
       width="1.1930578"
       y="-0.075907632"
       height="1.1518153">
      <feGaussianBlur
         inkscape:collect="always"
         stdDeviation="14.54532"
         id="feGaussianBlur1254-2" />
    </filter>
  </defs>
  <sodipodi:namedview
     id="base"
     pagecolor="#ffffff"
     bordercolor="#666666"
     borderopacity="1.0"
     inkscape:pageopacity="0.0"
     inkscape:pageshadow="2"
     inkscape:zoom="3.9664271"
     inkscape:cx="20.295343"
     inkscape:cy="2.8993348"
     inkscape:document-units="px"
     inkscape:current-layer="layer1"
     showgrid="false"
     inkscape:window-width="1366"
     inkscape:window-height="707"
     inkscape:window-x="0"
     inkscape:window-y="30"
     inkscape:window-maximized="1"
     inkscape:snap-from-guide="true"
     showguides="false"
     inkscape:guide-bbox="true"
     inkscape:pagecheckerboard="true"
     width="128px">
    <sodipodi:guide
       position="200,0"
       orientation="-200,0"
       id="guide3766"
       inkscape:locked="false" />
    <sodipodi:guide
       position="0,200"
       orientation="200,0"
       id="guide3127"
       inkscape:locked="false" />
    <sodipodi:guide
       position="0,-2.6171874e-06"
       orientation="0,100"
       id="guide3129"
       inkscape:locked="false" />
    <sodipodi:guide
       position="100,-2.6171874e-06"
       orientation="-200,0"
       id="guide3131"
       inkscape:locked="false" />
    <sodipodi:guide
       position="100,200"
       orientation="0,-100"
       id="guide3133"
       inkscape:locked="false" />
    <inkscape:grid
       type="xygrid"
       id="grid880" />
  </sodipodi:namedview>
  <metadata
     id="metadata7">
    <rdf:RDF>
      <cc:Work
         rdf:about="">
        <dc:format>image/svg+xml</dc:format>
        <dc:type
           rdf:resource="http://purl.org/dc/dcmitype/StillImage" />
      </cc:Work>
    </rdf:RDF>
  </metadata>
  <g
     inkscape:groupmode="layer"
     id="layer2"
     inkscape:label="a"
     sodipodi:insensitive="true"
     style="display:none">
    <rect
       style="fill:#ff0000;fill-opacity:1;stroke-width:11.3386;paint-order:fill markers stroke"
       id="rect3703"
       width="1810.8661"
       height="1684.3407"
       x="-407.85324"
       y="-371.13351"
       ry="12.0508" />
  </g>
  <g
     inkscape:label="Layer 1"
     inkscape:groupmode="layer"
     id="layer1"
     transform="translate(0,-28.36218)">
    <g
       id="g3964"
       transform="matrix(1.5025318,0,0,1.5025318,-50.25318,-477.79922)" />
    <g
       transform="matrix(5.0292968,0,0,5.0292968,-18.68544,815.98523)"
       id="g51">
      <g
         clip-path="url(#clipPath-536897967)"
         id="g53">
        <!-- color: #db363f -->
      </g>
    </g>
    <g
       id="g938"
       transform="translate(244.774,299.43518)" />
    <g
       id="g940"
       transform="translate(244.774,299.43518)" />
    <g
       id="g942"
       transform="translate(244.774,299.43518)" />
    <g
       id="g944"
       transform="translate(244.774,299.43518)" />
    <g
       id="g946"
       transform="translate(244.774,299.43518)" />
    <g
       id="g948"
       transform="translate(244.774,299.43518)" />
    <g
       id="g950"
       transform="translate(244.774,299.43518)" />
    <g
       id="g952"
       transform="translate(244.774,299.43518)" />
    <g
       id="g954"
       transform="translate(244.774,299.43518)" />
    <g
       id="g956"
       transform="translate(244.774,299.43518)" />
    <g
       id="g958"
       transform="translate(244.774,299.43518)" />
    <g
       id="g960"
       transform="translate(244.774,299.43518)" />
    <g
       id="g962"
       transform="translate(244.774,299.43518)" />
    <g
       id="g964"
       transform="translate(244.774,299.43518)" />
    <g
       id="g966"
       transform="translate(244.774,299.43518)" />
    <g
       id="g1008"
       transform="translate(715.635,418.02618)" />
    <g
       id="g1010"
       transform="translate(715.635,418.02618)" />
    <g
       id="g1012"
       transform="translate(715.635,418.02618)" />
    <g
       id="g1014"
       transform="translate(715.635,418.02618)" />
    <g
       id="g1016"
       transform="translate(715.635,418.02618)" />
    <g
       id="g1018"
       transform="translate(715.635,418.02618)" />
    <g
       id="g1020"
       transform="translate(715.635,418.02618)" />
    <g
       id="g1022"
       transform="translate(715.635,418.02618)" />
    <g
       id="g1024"
       transform="translate(715.635,418.02618)" />
    <g
       id="g1026"
       transform="translate(715.635,418.02618)" />
    <g
       id="g1028"
       transform="translate(715.635,418.02618)" />
    <g
       id="g1030"
       transform="translate(715.635,418.02618)" />
    <g
       id="g1032"
       transform="translate(715.635,418.02618)" />
    <g
       id="g1034"
       transform="translate(715.635,418.02618)" />
    <g
       id="g1036"
       transform="translate(715.635,418.02618)" />
    <path
       style="fill:none;stroke-width:16.6667"
       inkscape:connector-curvature="0"
       d="M -840.00001,132.36217 H -39.99999 V 932.36219 H -840.00001 Z"
       id="path1206" />
    <g
       id="g1039"
       transform="translate(1876.0781,-598.82208)" />
    <g
       id="g1041"
       transform="translate(1876.0781,-598.82208)" />
    <g
       id="g1043"
       transform="translate(1876.0781,-598.82208)" />
    <g
       id="g1045"
       transform="translate(1876.0781,-598.82208)" />
    <g
       id="g1047"
       transform="translate(1876.0781,-598.82208)" />
    <g
       id="g1049"
       transform="translate(1876.0781,-598.82208)" />
    <g
       id="g1051"
       transform="translate(1876.0781,-598.82208)" />
    <g
       id="g1053"
       transform="translate(1876.0781,-598.82208)" />
    <g
       id="g1055"
       transform="translate(1876.0781,-598.82208)" />
    <g
       id="g1057"
       transform="translate(1876.0781,-598.82208)" />
    <g
       id="g1059"
       transform="translate(1876.0781,-598.82208)" />
    <g
       id="g1061"
       transform="translate(1876.0781,-598.82208)" />
    <g
       id="g1063"
       transform="translate(1876.0781,-598.82208)" />
    <g
       id="g1065"
       transform="translate(1876.0781,-598.82208)" />
    <g
       id="g1067"
       transform="translate(1876.0781,-598.82208)" />
    <g
       id="g910"
       transform="matrix(0.05918367,0,0,0.05918367,1.3841691,28.817238)">
      <g
         id="shadow"
         transform="matrix(0.95703125,0,0,0.95703125,27.164778,49.267934)">
        <g
           id="shape">
          <path
             id="path"
             d="m 986.739,315.98644 q -9.3288,-22.61695 -21.0441,-44.31186 c -4.3932,-8.18983 -9.0576,-16.32543 -13.9932,-24.29831 C 930.49492,212.98983 904.62373,180.50169 874.08814,149.9661 774.12881,50.00678 653.39661,0 512,0 370.60339,0 249.92542,50.00678 149.9661,149.9661 50.00678,249.92542 0,370.60339 0,512 0,653.39661 50.00678,774.12881 149.9661,874.08814 249.92542,974.04746 370.60339,1024 512,1024 653.39661,1024 774.12881,974.04746 874.08814,874.08814 929.13898,818.98305 969.0576,757.58644 993.7898,689.95254 1013.9119,634.79322 1024,575.51186 1024,512 c 0,-48.70508 -5.9119,-94.96949 -17.7898,-138.79322 -1.356,-4.93559 -2.7661,-9.87119 -4.2305,-14.75254 -4.4475,-14.42712 -9.5458,-28.58305 -15.2407,-42.4678 z"
             style="fill:url(#linearGradient843);fill-opacity:1;stroke-width:1.08475"
             inkscape:connector-curvature="0" />
        </g>
      </g>
      <path
         d="M 516.38951,77.370698 A 461.09,461.09 0 0 0 55.299514,538.4607 461.09,461.09 0 0 0 208.6183,881.12622 c 2.64068,-2.19187 5.46805,-4.18079 8.35408,-5.98259 -0.21276,-0.1386 -0.11501,-0.15484 0.15539,-0.0989 0.2913,-0.18114 0.58025,-0.37157 0.8723,-0.54918 0.0545,-0.0331 0.12191,-0.0483 0.19955,-0.0476 0.56117,0.004 1.68201,0.84053 2.80235,1.8029 0.0536,0.0273 0.11025,0.0562 0.16952,0.0883 -2.67357,-3.51047 1.52753,0.17947 4.4216,2.87121 1.1837,-1.04566 3.45067,0.41703 5.65945,2.54985 0.44098,0.18032 0.92483,0.37586 1.58569,0.62334 0.58382,0.21861 -2.27766,-1.0079 -1.68811,-0.80522 2.10762,0.72454 3.88683,2.06534 5.94373,2.90477 1.42605,0.87285 2.93834,1.57104 4.39336,2.39621 0.42852,0.24302 0.85538,0.49115 1.27314,0.75223 0.072,0.045 0.27872,0.17319 0.19425,0.16422 -0.13901,-0.0147 -0.27262,-0.0519 -0.40614,-0.0953 2.78018,0.8943 0.60543,0.14217 5.95962,2.8253 0.46393,0.23249 -0.89607,-0.52319 -1.3526,-0.7699 -1.13453,-0.61308 2.31163,1.15407 3.39919,1.84705 0.4893,0.31177 0.93452,0.6856 1.37557,1.06479 0.0284,0.0144 0.0565,0.0297 0.0847,0.0441 3.35013,1.69666 6.73769,3.30467 10.06869,5.04317 3.62177,1.67464 7.33216,3.13689 10.86331,5.02551 2.8105,1.617 1.01168,0.54525 3.10606,2.10663 0.0289,5.6e-4 0.0381,-0.0111 0.0548,-0.004 1.61346,0.7483 3.20902,1.53375 4.81362,2.30085 -0.0525,-0.0605 -0.22676,-0.22157 -0.15716,-0.18187 6.04253,3.44635 0.26981,0.19129 5.22152,3.41508 0.1861,0.12116 0.43338,0.12225 0.62157,0.24015 1.31112,0.82137 3.52433,2.38245 4.95135,3.37977 0.33199,0.16924 0.68312,0.30599 0.99592,0.50857 4.62297,2.99423 1.67854,1.31571 5.1809,3.50513 3.35654,2.09828 2.11632,1.13802 5.88723,3.69056 1.13772,0.77014 2.24125,1.5876 3.36212,2.38209 4.15044,2.59513 8.17761,5.73207 11.02223,9.78085 0.0598,0.045 0.14149,0.10623 0.18364,0.13598 0.81057,0.57187 1.62841,1.13692 2.39269,1.76935 1.67368,1.38493 3.27398,3.43965 5.31157,4.35979 2.28026,1.48292 4.94567,2.10343 7.34227,3.34269 2.37141,1.22623 2.82086,1.57002 2.95774,1.70402 l 0.002,0.002 c 0.44468,0.1793 0.73864,0.30464 1.07716,0.44851 0.0105,0.004 0.007,0.002 0.0176,0.006 0.18821,0.068 0.37235,0.14542 0.55799,0.21898 -0.36397,-0.27482 -0.0635,-0.0748 0.84408,0.29135 0.0306,0.007 0.0937,0.0179 0.12007,0.0248 0.0484,0.0124 0.0613,0.0289 0.13773,0.0601 1.53298,0.52001 1.14683,0.96888 1.83468,0.16599 5.83918,1.44729 -0.14887,-0.15974 6.01791,1.90355 0.0952,0.0319 -0.31348,-0.22222 -0.21367,-0.2119 0.55068,0.0569 1.08274,0.23658 1.62279,0.35846 2.88988,0.6523 1.56496,0.47327 3.63581,0.66924 0.87866,0.15127 1.76539,0.2633 2.63637,0.45382 3.2664,0.71451 2.92868,0.75385 5.12087,1.50624 0.80582,0.022 1.60091,0.23297 2.40151,0.34081 1.6357,0.64009 3.32201,1.16253 4.91249,1.9053 0.0593,0.0116 0.0414,0.006 0.1042,0.0176 1.07029,0.21085 2.1274,0.48617 3.19082,0.7293 0.4064,0.0777 0.8094,0.18354 1.22018,0.23308 0.0304,0 0.0122,-0.0858 0.0424,-0.0812 2.93249,0.43614 3.84847,0.63597 6.78956,1.96183 0.67132,0.30266 1.29227,0.70343 1.92298,1.08598 0.0136,0.006 0.0269,0.0109 0.0406,0.0159 -0.28893,-0.17292 -0.3767,-0.23106 -0.56507,-0.34611 1.60089,0.49028 0.59928,0.17093 1.98478,0.79991 0.0134,-0.0128 0.034,-0.0234 0.0689,-0.0318 0.2141,-0.0515 4.99469,1.52715 5.13676,1.57335 0.6829,0.26127 0.56075,0.21659 0.63216,0.25958 0.67024,0.10178 1.35486,0.13742 2.00598,0.3249 7.70479,2.21802 2.8558,1.32786 5.7954,1.84175 3.31737,1.2727 6.73573,2.18586 10.1764,3.03897 2.65188,0.65755 1.60037,0.70691 2.84297,0.59508 3.1824,1.21727 6.56429,1.49192 9.79498,2.52865 1.53252,0.49174 3.02245,1.10604 4.53815,1.6475 0.46074,0.15324 3.25253,1.0895 3.65348,1.19546 0.0428,0.0118 0.0618,-0.0857 0.10595,-0.0811 1.39688,0.13724 3.52719,0.67427 4.67587,1.01358 0.96134,0.28406 1.89291,0.66062 2.83944,0.99062 1.714,0.18354 3.37674,1.11285 4.91426,2.03776 1.30695,-0.22723 2.61613,-0.4352 3.93601,-0.56507 1.14846,-0.11301 2.29647,0.23495 3.44158,0.37789 1.54708,0.19321 3.08818,0.42353 4.6335,0.63039 3.85086,0.51542 7.72495,0.85837 11.56434,1.45326 2.74401,0.4252 5.46625,0.98912 8.19868,1.48329 4.04301,0.61154 8.07034,1.35391 12.10468,2.0518 7.78428,-8.67528 5.19642,-6.14062 1.34024,0.22964 0.89573,0.15216 1.79067,0.30306 2.68757,0.44672 1.13045,0.0841 2.25209,0.22222 3.36388,0.42908 1.15886,-2.46799 2.32506,-4.45181 3.49985,-5.35215 -0.7402,0.0167 -1.48086,0.041 -2.21963,0 -3.64053,-0.20067 4.63796,-6.51745 6.00024,-0.0176 5.10624,-0.0211 10.21311,-0.0214 15.3167,0.16775 1.83743,0.0253 -0.10552,0.0324 3.18554,-0.25428 1.46282,-0.12756 2.92702,-0.24529 4.39335,-0.32313 1.34701,-0.0714 2.69862,-0.0492 4.04548,-0.12361 2.74292,-0.15216 5.47509,-0.47925 8.21987,-0.60745 3.81883,-0.72409 7.63493,-1.57032 11.49371,-2.0607 0.90954,-0.11564 1.82548,-0.16109 2.73878,-0.24192 0.49267,-0.0163 0.99031,0.01 1.47975,-0.0495 1.23267,-0.14827 2.45313,-0.38145 3.67996,-0.57212 3.22095,-0.47782 9.00165,-1.33058 11.95987,-1.79231 2.77027,-0.43242 5.5259,-0.97078 8.30641,-1.33142 10.48852,-1.36031 21.08544,-2.04952 31.65756,-2.1543 0.49269,-0.009 0.98531,-0.0214 1.47798,-0.0318 1.1165,-0.2583 2.23319,-0.51743 3.36212,-0.71163 1.08033,-0.18578 2.18017,-0.23083 3.2703,-0.34609 0.92219,-0.10108 1.85254,-0.13756 2.76525,-0.30372 9.57164,-1.74256 -1.19226,-0.29756 9.55132,-1.98832 2.114,-0.33271 4.27435,-0.3171 6.38519,-0.66924 1.37751,-0.22982 2.73223,-0.57929 4.09845,-0.86878 1.51161,-0.26897 3.02302,-0.53792 4.53461,-0.80698 0.67317,-0.0516 1.35256,-0.0547 2.02011,-0.15539 1.17586,-0.1781 2.33452,-0.46219 3.50338,-0.68161 3.86382,-0.72554 7.73789,-1.39978 11.62966,-1.95828 3.10363,-0.79929 6.25409,-1.05556 9.18578,-2.61695 0.61659,-0.0858 1.22948,-0.21467 1.85058,-0.2578 0.0445,0 -0.003,0.1379 0.0406,0.12713 0.78068,-0.19527 1.53556,-0.48335 2.30616,-0.71515 2.79273,-0.84012 5.5933,-1.66654 8.43,-2.34677 3.59279,-0.82256 3.55665,-0.91206 7.18335,-1.35968 0.82888,-0.10229 1.66345,-0.1613 2.49687,-0.21543 0.36912,-0.024 0.74422,0.0441 1.10893,-0.0176 1.03252,-0.1749 5.01169,-1.18678 5.96845,-1.42501 3.34019,-0.96943 6.69825,-1.86333 10.06516,-2.73349 -0.56874,-1.05132 -1.14902,-2.09456 -1.74993,-3.12373 1.39328,-0.9454 2.73479,-1.97146 4.17969,-2.8359 0.22235,-0.13303 0.84526,-0.38804 1.5186,-0.65159 0.0935,-0.0436 0.1879,-0.0872 0.27018,-0.14126 0.97413,-0.63963 1.89994,-1.35725 2.91182,-1.93534 6.96545,-3.97935 7.78565,-4.02061 15.73872,-7.39877 25.5714,-10.46252 -7.02019,2.7841 19.83189,-7.83316 3.09452,-1.22357 6.15379,-2.53672 9.23875,-3.78414 0.30115,-0.18377 0.60998,-0.36521 0.90763,-0.55094 6.70682,-4.18471 5.69442,-3.59192 12.60617,-8.22871 2.2493,-1.51375 4.46314,-3.07748 6.66419,-4.65822 0.0936,-0.27011 0.1948,-0.5455 0.27017,-0.80344 0.5219,-1.78625 1.9059,-3.20713 3.0372,-4.68471 1.49543,-1.95315 6.97449,-7.65704 8.5395,-9.31469 2.0209,-2.16712 3.9749,-4.39833 6.06204,-6.50173 3.02259,-3.04615 16.36085,-15.63095 18.90306,-18.02193 3.67125,-3.45282 7.32619,-6.92482 11.04165,-10.33002 6.80879,-6.24019 12.3241,-11.01528 19.1644,-17.01011 5.41051,-4.75062 7.0525,-6.04344 11.90692,-10.80503 1.12309,-1.1016 2.23585,-2.21643 3.27912,-3.3939 0.96725,-1.09166 1.02916,-0.94524 0.79637,-1.77111 2.12357,-4.48289 5.56426,-8.05448 8.36998,-12.07466 0.43945,-0.62968 0.80376,-1.30779 1.20605,-1.96183 0.70889,-0.99846 1.41717,-1.99637 2.12605,-2.99482 0.34704,-0.44599 3.63033,-4.68772 4.10905,-5.21445 0.3115,-0.34275 0.64206,-0.6667 0.96766,-0.99593 0.32085,-0.52058 0.64693,-1.03804 0.9606,-1.56274 0.63308,-1.05893 1.277,-2.11258 1.84705,-3.20672 0.37912,-0.72767 0.6713,-1.49862 0.99769,-2.25141 1.34693,-3.10661 2.57216,-6.25857 3.88833,-9.37826 0.41384,-0.97246 0.81296,-1.95101 1.24137,-2.91713 0.98978,-2.2322 1.67779,-3.53905 2.6081,-5.75127 0.63088,-0.98366 0.72096,-2.16044 1.14249,-3.21731 0.27156,-0.68084 0.56797,-1.35248 0.86701,-2.02186 0.055,-1.528 0.45613,-2.55096 2.0254,-6.08325 3.12623,-4.37378 4.04216,-5.42513 7.71662,-8.36113 0.10408,-0.42142 0.15659,-0.41821 1.76581,-3.57048 0.11874,-0.13246 0.34175,-0.57457 0.35669,-0.39732 0.009,0.10295 -4e-5,0.20375 -0.0123,0.3055 0.003,-0.005 0.005,-0.008 0.007,-0.0123 0.27256,-2.223 0.35554,-3.89571 1.14602,-6.55293 0.43284,-0.94251 0.85317,-1.89031 1.29435,-2.82884 0.0702,-0.52372 0.14355,-1.04693 0.19954,-1.57158 0.36295,-1.03831 0.70519,-2.08431 1.0895,-3.1149 0.0335,-0.09 -0.0222,0.1907 -0.0335,0.28605 0.12412,-0.34554 0.24667,-0.69099 0.37082,-1.03652 0.87685,-2.8271 1.61292,-5.70998 2.85532,-8.41059 0.9444,-1.46688 0.22434,-0.20703 1.08598,-3.51397 0.8504,-3.26378 1.96172,-6.44733 3.1714,-9.59369 0.2276,-0.59306 0.4419,-1.19063 0.68338,-1.77818 0.16063,-0.39084 0.24046,-0.52128 0.28076,-0.50325 0.009,-1.05442 6.7e-4,-1.957 -0.0811,-0.90586 -0.11945,-4.64995 -0.27284,-6.25841 2.42093,-7.4906 -0.24283,-0.002 -0.48687,-0.0107 -0.72927,-0.0106 -0.18839,10e-6 0.93819,-1.69442 0.34256,-0.44852 1.19191,-2.74151 2.40217,-5.454 3.51044,-8.23224 0.3749,-0.9398 3.04409,-7.7017 3.23674,-8.12628 0.73261,-1.61453 1.59955,-3.16439 2.39974,-4.74652 0.83575,-1.34262 1.64408,-2.70281 2.50747,-4.02783 0.48727,-0.74779 1.05243,-1.44242 1.54333,-2.18785 1.74436,-2.64889 3.26441,-5.45167 4.34213,-8.43883 0.60027,-1.3263 1.1498,-2.67818 1.80113,-3.98015 2.88808,-5.77303 6.94276,-10.89502 9.9804,-16.58455 2.56012,-4.14842 3.93187,-6.41651 6.53882,-10.39889 0.0909,-0.25483 0.22101,-0.58415 0.30019,-0.81582 1.36025,-3.98009 2.49343,-8.03571 3.83006,-12.0252 0.22687,-0.90005 0.48325,-1.79279 0.67984,-2.69994 0.17062,-0.78735 0.23493,-1.5963 0.42023,-2.38031 0.53749,-2.27311 1.36167,-4.47673 1.81353,-6.76838 0.0923,-0.46797 0.0524,-0.95402 0.10063,-1.42855 0.085,-0.83444 0.19908,-1.66579 0.29844,-2.49863 0.13372,-1.03463 0.2988,-2.06407 0.47502,-3.09194 0,-2.28175 -0.009,-4.56432 0,-6.84607 0.009,-7.00725 -0.0353,-14.01306 -0.0298,-21.02028 0.009,-0.50142 0.0118,-1.00299 0.0172,-1.50448 -0.12223,-0.6073 -0.23488,-1.21342 -0.34789,-1.81172 -0.7589,-3.67578 -0.20216,-7.42328 -0.30902,-11.12818 -0.0841,-2.92426 -0.48451,-5.62464 -0.83168,-8.54125 -0.74661,-5.27466 -0.77644,-10.57099 -0.65864,-15.87116 -0.65644,-4.70976 -0.0978,-1.31673 -0.35142,-4.93899 -0.148,-2.11427 -0.67553,-4.23505 -0.47143,-6.36048 -0.20999,-3.00665 0.0255,-0.18585 -0.558,-4.62467 -0.727,-5.53051 -1.75565,-11.03166 -1.92474,-16.62516 -0.11567,-2.04358 -0.28793,-4.08488 -0.3461,-6.13091 -0.0575,-2.02284 -2e-4,-4.04722 0,-6.07088 8.3e-4,-9.08642 0.006,-18.1725 0.004,-27.25891 -9.1e-4,-1.87643 -0.006,-3.75291 -0.0106,-5.62942 -0.21072,-1.10338 -0.42752,-2.2058 -0.61802,-3.31267 -0.23634,-1.37312 -0.37485,-2.76222 -0.64807,-4.12848 -0.44838,-2.24225 -1.42102,-4.37169 -2.05187,-6.56178 -0.33074,-1.14826 -0.60631,-2.31218 -0.90939,-3.46806 -1.55082,-5.98017 -3.76663,-11.75229 -5.47227,-17.68818 -2.86387,-9.96664 -0.4285,-2.61905 -3.05134,-10.20641 -1.12463,-4.71584 -3.08252,-9.15373 -4.4057,-13.81047 -1.12827,-3.97072 -0.2825,-1.48987 -0.95001,-3.39566 -0.23024,-1.1622 -0.40207,-2.33832 -0.69044,-3.48749 -0.0814,-0.32474 0.19041,1.31427 0.067,1.00299 -0.18239,-0.46047 -1.28168,-4.42608 -1.46562,-5.29922 -0.76494,-3.63123 -0.11869,-2.01544 -0.64276,-3.28089 -0.15475,-0.14797 -0.62691,-1.80468 -0.96943,-3.31973 -1.28548,-2.99109 -1.88098,-3.94203 -2.41564,-7.12331 -0.21029,-1.2512 -0.22852,-2.53015 -0.44321,-3.78061 -0.0273,-0.15884 -0.20286,-0.25432 -0.27372,-0.39907 -0.42627,-0.87085 -0.75113,-1.78833 -1.12658,-2.68228 -0.34424,-0.97773 -0.68587,-1.95631 -1.033,-2.93302 -0.48661,-1.36914 -0.91114,-2.41844 -1.19193,-3.77709 -0.79683,-0.95375 -1.60063,-1.94309 -2.49687,-3.12372 -3.15363,-4.15435 -3.31716,-4.81775 -6.21743,-9.11867 -11.46281,-16.99863 3.61522,5.73759 -7.75548,-11.47605 -4.39209,-6.93024 -0.90695,-1.63742 -5.60646,-8.24105 -0.66205,-0.93031 -1.26508,-1.90218 -1.9371,-2.82531 -1.04977,-1.44206 -2.20617,-2.80595 -3.22791,-4.26799 -0.8842,-1.26522 -1.66232,-2.60026 -2.45626,-3.9254 -0.71996,-0.69028 -1.22808,-1.16798 -3.57577,-3.48219 -0.90491,-0.89202 -1.74738,-1.84387 -2.62047,-2.76703 -2.97718,-3.14795 -5.93744,-6.31561 -8.26049,-9.99983 -0.42748,-0.58722 -0.83511,-1.18902 -1.27845,-1.76405 -1.58182,-0.39453 -3.30271,-1.29157 -4.82598,-2.38385 -0.0254,0.0629 -0.25434,-0.13406 -0.49973,-0.34963 -0.44457,-0.34234 -0.86527,-0.69956 -1.25373,-1.06655 -0.51552,-0.15374 -2.80533,-2.42311 -2.11544,-1.98654 0.0935,0.0591 0.54451,0.3931 0.81934,0.59154 -0.0772,-0.0715 -0.19053,-0.18875 -0.25605,-0.24545 0.28513,0.21446 -0.0376,-0.0278 0.21543,0.16246 -0.25583,-0.33916 -0.48233,-0.67769 -0.65512,-1.00828 -0.44629,-0.85394 0.51497,-0.0728 1.58041,1.03476 -1.52186,-3.84268 -3.49098,-7.51136 -5.54819,-11.09638 -0.51114,-0.89074 0.24946,3.2945 0.18717,3.07428 0.67281,1.47905 1.37713,2.94446 2.01833,4.43749 0.0837,0.1949 -0.21427,-0.36791 -0.34257,-0.5368 -0.56303,-0.74118 -1.16546,-1.45039 -1.72874,-2.19138 -1.89461,-2.49237 -3.6815,-5.07135 -5.80424,-7.38465 -1.70955,-2.00222 -4.41212,-5.1452 -6.00906,-7.11977 -0.96723,-1.19595 -1.86443,-2.44828 -2.83767,-3.63935 -1.43017,-1.75028 -2.98457,-3.39883 -4.3704,-5.18443 -2.84088,-3.66041 -4.69877,-6.73796 -7.1851,-10.61432 -0.88372,-1.64699 -1.83155,-3.26063 -2.65049,-4.94076 -0.57579,-1.18128 -1.02338,-2.42117 -1.5292,-3.63405 -1.23565,-2.96286 -2.51891,-5.90645 -3.6835,-8.89795 -5.51444,-14.16508 1.7428,3.5166 -4.39688,-11.24119 -1.17825,-2.85066 -2.41653,-5.64705 -3.27383,-8.60658 -0.76811,-2.65174 -5.52749,-4.22693 -2.55866,-7.92852 1.94843,-2.42935 4.42723,-4.28601 7.08798,-5.94727 0.13539,-0.86913 0.33588,-1.66331 0.61805,-2.36973 A 461.09,461.09 0 0 0 516.38951,77.370698 Z M 872.85842,296.89876 c 0.0199,0.0183 0.0449,0.0443 0.0654,0.0636 -0.009,-0.011 -0.0144,-0.0226 -0.0229,-0.0335 -0.0145,-0.0105 -0.0282,-0.0198 -0.0424,-0.03 z m 0.0654,0.0636 c 0.35144,0.44755 0.76857,0.89476 1.23078,1.33141 0.0576,0.0171 0.10857,0.0252 0.11477,-0.0176 -0.49311,-0.49491 -0.95186,-0.94477 -1.34555,-1.31376 z M 497.38227,975.8764 c -0.40262,0.002 -0.8052,-3.5e-4 -1.20782,0.002 0.4629,0.38524 0.92724,0.99724 1.39322,1.87882 -0.007,-0.72152 -0.073,-1.34431 -0.1854,-1.8806 z m -1.20782,0.002 c -0.86272,-0.71801 -1.71987,-0.63785 -2.5728,0.0159 0.20829,-0.005 0.41689,-0.0114 0.62511,-0.0123 0.64919,-0.004 1.29849,-4e-5 1.94769,-0.004 z m -12.12409,4.49224 c -0.44685,-0.0759 -0.89361,-0.15225 -1.34026,-0.22964 -0.17549,0.19573 -0.33824,0.37212 -0.52445,0.57925 0.16965,-0.009 0.33875,-0.0253 0.50855,-0.0263 0.38507,0 0.76864,0.0172 1.15308,0.019 0.0673,-0.11247 0.13633,-0.23236 0.20308,-0.34257 z M 338.95144,946.26719 c -0.0435,-0.0147 -0.10693,-0.0293 -0.15363,-0.0441 0.16447,0.0651 0.30217,0.12409 0.50326,0.196 0.11954,0.0427 -0.15563,-0.0729 -0.34963,-0.15186 z m -0.15363,-0.0441 c -0.0341,-0.0134 -0.0717,-0.0275 -0.10417,-0.0406 -0.0338,-0.008 -0.0943,-0.0195 -0.13245,-0.0282 0.0801,0.0229 0.16463,0.0461 0.23662,0.0689 z M 225.59308,879.21031 c -0.0216,0.0192 -0.0426,0.0392 -0.0635,0.0601 0.0512,0.0584 0.10371,0.12587 0.15539,0.18717 0.40454,0.37457 0.81755,0.74018 1.22724,1.10893 0.0307,0.002 0.0995,0.006 0.1289,0.007 -0.4014,-0.38633 -0.87577,-0.83103 -1.44797,-1.36321 z m -0.0635,0.0601 c -0.29697,-0.33837 -0.58924,-0.64228 -0.86172,-0.86172 -0.53946,-0.43447 -1.13716,-0.76725 -1.76758,-1.04537 0.5216,0.31702 1.01563,0.6128 1.35614,0.77696 0.41956,0.3815 0.83418,0.76758 1.2502,1.15308 0.007,-0.008 0.0152,-0.0152 0.0229,-0.0229 z m -2.6293,-1.90709 c -0.61218,-0.37208 -1.25156,-0.76606 -1.72873,-1.02417 0.0495,0.065 0.1152,0.14717 0.16951,0.21719 0.13919,0.12277 0.26487,0.23895 0.40085,0.362 0.39381,0.13532 0.78267,0.27923 1.15837,0.44498 z m -5.77245,-2.31851 c -0.052,0.0323 -0.10338,0.0663 -0.15539,0.0989 0.0625,0.0408 0.13405,0.0849 0.25428,0.14833 0.94093,0.49684 1.97556,0.82 3.0107,1.13895 -0.76515,-0.44935 -1.31467,-0.75098 -1.76227,-0.99592 -0.51688,-0.16121 -1.05155,-0.32904 -1.34732,-0.39024 z M 827.85129,214.53226 c -0.45302,-0.23257 0.69414,4.3623 1.35968,4.39512 -0.32902,-0.73143 -0.65785,-1.58426 -0.99592,-2.71583 -0.0486,-0.65287 -0.0655,-0.82483 -0.10772,-1.35439 -0.0475,-0.0682 -0.0802,-0.11938 -0.1289,-0.18893 -0.0519,-0.0742 -0.0936,-0.11875 -0.12714,-0.13597 z m 2.63107,7.08446 c -0.26594,-0.25206 0.35535,0.41346 0.83346,0.91116 -0.0139,-0.0451 -0.0248,-0.0685 -0.0389,-0.11479 -0.26296,-0.26739 -0.52251,-0.53846 -0.7946,-0.79637 z m 1.07714,1.11775 c 7.4e-4,9.1e-4 0.0148,0.007 0.0159,0.009 -0.002,-0.003 -0.005,-0.005 -0.007,-0.007 4.4e-4,8.7e-4 -0.01,-0.003 -0.009,-0.002 z m 85.07881,121.03083 c -0.0426,0.39996 0.43427,1.05162 0.78755,1.63515 -0.0343,-0.0919 -0.0672,-0.17021 -0.10242,-0.26663 -0.24604,-0.44831 -0.48336,-0.90003 -0.68513,-1.36852 z m 3.82475,372.00103 c -1.27917,0.21906 -2.61716,0.46799 -4.10198,0.79108 -1.20239,0.26164 0.17915,2.26864 1.6987,3.30561 0.82831,-1.35051 1.65931,-2.70065 2.40328,-4.09669 z m -15.67162,26.10231 c -0.0296,0.076 -0.0756,0.18294 -0.0936,0.23661 -0.0425,0.12704 -0.10608,0.52437 -0.0636,0.39731 0.0462,-0.13815 0.10208,-0.39896 0.15716,-0.63392 z m -14.24836,28.34134 c -0.12108,1.78945 0.1506,5.99324 0.13596,4.48165 -0.0209,-2.16012 -0.10297,-3.46904 -0.13596,-4.48165 z M 231.49621,889.3302 c 0.0121,0.0449 0.0217,0.0809 0.0335,0.12537 0.0904,0.14763 0.17945,0.29587 0.27017,0.44322 -0.002,-0.006 -0.004,-0.0119 -0.006,-0.0176 -0.10924,-0.20144 -0.19876,-0.3664 -0.29843,-0.55093 z m 44.86411,15.77934 c 0.38794,0.28532 0.5826,0.44187 1.23606,0.9041 0.0869,0.0614 -0.0766,-0.21124 -0.16422,-0.27194 -0.34066,-0.23637 -0.70997,-0.42898 -1.07184,-0.63216 z m -2.06424,12.62912 c 0.10248,0.16086 0.20257,0.32326 0.29665,0.48912 0.15508,0.13752 0.38542,0.34864 0.47501,0.4238 0.0436,0.0133 0.17099,0.0527 0.21189,0.0654 -0.22356,-0.23236 -0.55973,-0.56507 -0.98355,-0.97827 z m 1.04006,1.54333 c 0.005,0.005 0.01,0.008 0.0141,0.0123 0.0125,0.005 0.016,0.006 0.0282,0.0106 -0.008,-0.006 -0.0151,-0.0121 -0.0229,-0.0176 -0.007,-0.003 -0.0125,-0.003 -0.0194,-0.006 z m 84.91459,32.05133 c 0.11228,0.0369 0.14483,0.0518 0.26839,0.0918 0.11694,0.0379 0.48353,0.0767 0.36553,0.0424 -0.13891,-0.0405 -0.40035,-0.0882 -0.63392,-0.1342 z m 29.0618,8.98271 c -0.0251,-0.006 -0.01,0.007 0.0601,0.0476 0.0825,0.0477 0.16795,0.0905 0.25074,0.13773 0.50388,0.22779 1.00599,0.46049 1.51507,0.67631 0.52209,0.22135 -1.65023,-0.8164 -1.82586,-0.86171 z m 52.78908,14.4638 c 0.11665,0.0189 0.26745,0.0504 0.33904,0.0812 0.0314,0.0135 -0.0871,0.0856 -0.053,0.0865 0.80724,0.0324 1.01926,0.0276 1.49742,0.0389 -0.33238,-0.32345 -1.19772,-0.1264 -1.78349,-0.2066 z"
         style="color:#000000;display:inline;overflow:visible;visibility:visible;fill:#e3e3e3;fill-opacity:1;fill-rule:nonzero;stroke:none;stroke-width:42.1176;marker:none;enable-background:accumulate"
         id="path4188"
         inkscape:connector-curvature="0" />
      <path
         id="path1204"
         style="fill:url(#linearGradient1236);fill-opacity:1;stroke-width:15.0683"
         d="m 420.7243,191.37691 v 90.41016 c -133.20379,0 -241.09375,107.88801 -241.09375,241.0918 0,47.31446 13.86455,91.1641 37.3711,128.38281 l 43.99804,-44 c -13.41079,-25.16406 -21.0957,-53.79417 -21.0957,-84.38281 0,-99.90284 80.91748,-180.81836 180.82031,-180.81836 v 90.4082 L 541.27118,311.92379 Z" />
      <path
         id="path1238-9"
         style="opacity:0.350076;fill:#ffffff;fill-opacity:0.65529;stroke-width:15.0683;filter:url(#filter1252-6)"
         d="m 803.78154,456.91988 -44,44 c 13.41078,25.16406 21.0957,53.79221 21.0957,84.38091 0,99.9028 -80.91748,180.8203 -180.82031,180.8203 v -90.4102 l -120.54688,120.5469 120.54688,120.5469 v -90.4102 c 133.20377,0 241.09375,-107.89 241.09375,-241.0937 0,-47.3145 -13.86259,-91.16222 -37.36914,-128.38091 z" />
      <path
         id="circle944"
         d="M 831.73624,203.02134 208.67497,881.35093 A 461.09,461.09 0 0 0 517.94007,1001.1652 461.09,461.09 0 0 0 979.03004,540.07509 461.09,461.09 0 0 0 831.73624,203.02134 Z"
         style="color:#000000;display:inline;overflow:visible;visibility:visible;fill:url(#linearGradient946);fill-opacity:1;fill-rule:nonzero;stroke:none;stroke-width:42.1176;marker:none;enable-background:accumulate"
         inkscape:connector-curvature="0" />
      <path
         id="path1204-5"
         style="fill:url(#linearGradient1250);fill-opacity:1;stroke-width:15.0683"
         d="m 803.78017,456.9196 -43.99855,43.99856 c 13.41077,25.16407 21.09488,53.7947 21.09488,84.38336 0,99.90283 -80.91674,180.81957 -180.81957,180.81957 V 675.71226 L 479.51118,796.258 600.05693,916.80374 v -90.40882 c 133.20377,0 241.09339,-107.88962 241.09339,-241.0934 0,-47.31447 -13.8636,-91.16322 -37.37015,-128.38192 z" />
    </g>
  </g>
</svg>
